
<svg version="1.0" xmlns="http://www.w3.org/2000/svg"
 width="259.000000pt" height="136.000000pt" viewBox="0 0 259.000000 136.000000"
 preserveAspectRatio="xMidYMid meet">

<g transform="translate(0.000000,136.000000) scale(0.100000,-0.100000)"
fill="#00FFFF" stroke="none">
<path d="M1495 1280 c30 -105 117 -200 265 -290 58 -36 129 -88 158 -116 56
-54 61 -41 12 31 -41 60 -116 126 -216 190 -109 70 -149 105 -193 164 -24 33
-31 39 -26 21z"/>
<path d="M890 915 c0 -12 142 -74 200 -88 118 -30 193 -31 410 -7 191 21 285
22 360 5 l25 -6 -25 15 c-92 53 -256 76 -440 62 -202 -16 -439 -13 -487 6 -24
10 -43 15 -43 13z"/>
<path d="M612 723 c2 -13 15 -19 46 -21 l42 -3 0 -130 c0 -157 7 -169 95 -169
48 0 55 2 55 20 0 17 -7 20 -43 20 -24 0 -48 5 -55 12 -8 8 -12 56 -12 150 l0
138 -66 0 c-57 0 -65 -2 -62 -17z"/>
<path d="M920 731 c0 -6 23 -56 50 -112 43 -87 50 -111 50 -161 0 -51 2 -58
20 -58 18 0 20 7 20 55 0 46 9 74 50 162 28 58 50 110 50 114 0 5 -8 9 -19 9
-14 0 -29 -23 -59 -90 l-39 -91 -43 91 c-31 65 -48 90 -62 90 -10 0 -18 -4
-18 -9z"/>
<path d="M375 648 c-37 -21 -44 -42 -45 -118 0 -88 13 -114 65 -129 40 -11 88
0 116 25 38 34 15 45 -39 19 -53 -27 -102 -1 -102 54 0 19 6 21 80 21 l80 0 0
45 c0 37 -5 51 -26 70 -30 28 -93 34 -129 13z m105 -47 c22 -42 14 -51 -50
-51 -64 0 -72 9 -50 51 8 14 21 19 50 19 29 0 42 -5 50 -19z"/>
<path d="M1285 649 c-12 -6 -26 -19 -33 -30 -11 -17 -9 -19 11 -19 13 0 28 5
34 11 15 15 69 14 88 -1 8 -7 15 -20 15 -30 0 -14 -12 -19 -59 -24 -76 -9
-105 -31 -105 -80 0 -51 30 -79 84 -79 29 0 48 7 65 23 l25 23 0 -21 c0 -16 6
-22 21 -22 21 0 21 4 17 106 -3 102 -5 107 -31 130 -30 26 -93 32 -132 13z
m115 -158 c0 -35 -31 -61 -70 -61 -31 0 -50 17 -50 45 0 33 20 45 72 45 46 0
48 -1 48 -29z"/>
<path d="M1550 530 c0 -121 1 -130 19 -130 17 0 19 10 23 96 3 87 5 98 27 115
24 19 54 18 76 -3 6 -5 12 -54 13 -108 4 -91 6 -100 23 -100 17 0 19 8 19 105
0 99 -2 107 -25 130 -31 32 -86 34 -115 5 l-20 -20 0 20 c0 13 -7 20 -20 20
-19 0 -20 -7 -20 -130z"/>
<path d="M1882 640 c-27 -26 -29 -80 -4 -103 9 -8 35 -19 57 -22 58 -11 77
-23 73 -48 -5 -34 -51 -45 -92 -23 -19 10 -41 16 -50 14 -28 -5 9 -46 52 -57
81 -22 151 24 137 88 -7 35 -40 55 -107 66 -42 7 -52 17 -43 45 5 16 15 20 50
20 24 0 47 -4 50 -10 9 -15 45 -12 45 4 0 45 -127 64 -168 26z"/>
</g>
</svg>
